<svg width="50" height="46" viewBox="0 0 50 46" fill="none" xmlns="http://www.w3.org/2000/svg">
    <path d="M39.6004 33.2556C36.1664 33.2556 33.3728 36.0493 33.3728 39.4832C33.3728 42.917 36.1665
                    45.7108 39.6004 45.7108C43.0343 45.7108 45.828 42.917 45.828 39.4832C45.828 36.0493 43.0343 33.2556
                    39.6004 33.2556ZM39.6004 41.9742C38.2266 41.9742 37.1094 40.857 37.1094 39.4832C37.1094 38.1094
                    38.2266 36.9921 39.6004 36.9921C40.9742 36.9921 42.0915 38.1094 42.0915 39.4832C42.0915 40.857
                    40.9742 41.9742 39.6004 41.9742Z" fill="#86A8FF"/>
    <path d="M49.6031 9.18632C49.2494 8.73358 48.7069 8.46952 48.1322 8.46952H11.5871L9.90561
                    1.43419C9.70446 0.593496 8.95274 8.53223e-09 8.08835 8.53223e-09H1.92297C0.891084 -9.75418e-05
                    0.0546875 0.836299 0.0546875 1.86819C0.0546875 2.90007 0.891084 3.73647 1.92297
                    3.73647H6.61368L12.6856 29.1428C12.8867 29.9841 13.6385 30.577 14.5029 30.577H43.586C44.4449 30.577
                    45.1934 29.9916 45.3995 29.1583L49.9457 10.7867C50.0833 10.2288 49.9568 9.63905 49.6031
                    9.18632ZM42.1243 26.8405H15.9775L12.4801 12.2061H45.745L42.1243 26.8405Z" fill="#86A8FF"/>
    <path d="M16.9937 33.2556C13.5598 33.2556 10.7661 36.0493 10.7661 39.4832C10.7661 42.917
                    13.5599 45.7108 16.9937 45.7108C20.4276 45.7108 23.2213 42.917 23.2213 39.4832C23.2213 36.0493
                    20.4276 33.2556 16.9937 33.2556ZM16.9937 41.9742C15.6199 41.9742 14.5027 40.857 14.5027
                    39.4832C14.5027 38.1094 15.6199 36.9921 16.9937 36.9921C18.3675 36.9921 19.4848 38.1094 19.4848
                    39.4832C19.4848 40.857 18.3675 41.9742 16.9937 41.9742Z" fill="#86A8FF"/>
</svg>