<svg width="25" height="25" viewBox="0 0 25 25" fill="none" xmlns="http://www.w3.org/2000/svg">
<path d="M5.37027 23.7944C5.39848 24.4682 5.95297 25 6.6273 25H18.3726C19.047 25 19.6015 24.4682 19.6297 23.7944L20.4684 6.08765H4.53149L5.37027 23.7944ZM15.1569 10.4857C15.1569 10.2035 15.3857 9.97471 15.6679 9.97471H16.4853C16.7674 9.97471 16.9963 10.2035 16.9963 10.4857V20.602C16.9963 20.8842 16.7676 21.1129 16.4853 21.1129H15.6679C15.3858 21.1129 15.1569 20.8843 15.1569 20.602V10.4857ZM11.5803 10.4857C11.5803 10.2035 11.8091 9.97471 12.0913 9.97471H12.9086C13.1907 9.97471 13.4196 10.2035 13.4196 10.4857V20.602C13.4196 20.8842 13.1909 21.1129 12.9086 21.1129H12.0913C11.8092 21.1129 11.5803 20.8843 11.5803 20.602V10.4857ZM8.00361 10.4857C8.00361 10.2035 8.23238 9.97471 8.51458 9.97471H9.332C9.61414 9.97471 9.84298 10.2035 9.84298 10.4857V20.602C9.84298 20.8842 9.6142 21.1129 9.332 21.1129H8.51458C8.23244 21.1129 8.00361 20.8843 8.00361 20.602V10.4857Z" fill="white"/>
<path d="M21.0269 1.28787H15.6083V0.263475C15.6083 0.117998 15.4904 0 15.3449 0H9.65485C9.50938 0 9.39144 0.117998 9.39144 0.263475V1.28781H3.97286C3.53679 1.28781 3.18335 1.64132 3.18335 2.07738V4.55772H21.8164V2.07744C21.8164 1.64138 21.4629 1.28787 21.0269 1.28787Z" fill="white"/>
</svg>
