<svg width="145" height="30" viewBox="0 0 145 30" fill="none" xmlns="http://www.w3.org/2000/svg">
<path fill-rule="evenodd" clip-rule="evenodd" d="M145 0H0V30H145V0ZM25.7426 11.4938C26.295 11.5438 26.762 11.919 26.9322 12.4472C27.1034 12.9764 26.9441 13.5548 26.5269 13.9211L20.8545 18.9115L22.5272 26.3042C22.6496 26.8466 22.4395 27.4087 21.9898 27.7357C21.5413 28.0619 20.9444 28.088 20.4709 27.8022L14.0001 23.9204L7.52693 27.8022C7.30813 27.9335 7.06433 28 6.81855 28C6.5335 28 6.25082 27.9108 6.00921 27.7357C5.5597 27.4097 5.34943 26.8478 5.47183 26.3042L7.14447 18.9115L1.47211 13.9201C1.05494 13.5548 0.896845 12.9754 1.06804 12.4472C1.23923 11.919 1.705 11.545 2.25647 11.4938L9.76195 10.8101L12.7294 3.84252C12.9482 3.3306 13.4465 3 14.0001 3C14.5538 3 15.0521 3.3306 15.2709 3.84132L18.2383 10.8101L25.7426 11.4938ZM55.9322 12.4472C55.762 11.919 55.295 11.5438 54.7426 11.4938L47.2383 10.8101L44.2709 3.84132C44.0521 3.3306 43.5538 3 43.0001 3C42.4465 3 41.9482 3.3306 41.7294 3.84252L38.762 10.8101L31.2565 11.4938C30.705 11.545 30.2392 11.919 30.068 12.4472C29.8968 12.9754 30.0549 13.5548 30.4721 13.9201L36.1445 18.9115L34.4718 26.3042C34.3494 26.8478 34.5597 27.4097 35.0092 27.7357C35.2508 27.9108 35.5335 28 35.8186 28C36.0643 28 36.3081 27.9335 36.5269 27.8022L43.0001 23.9204L49.4709 27.8022C49.9444 28.088 50.5413 28.0619 50.9898 27.7357C51.4395 27.4087 51.6496 26.8466 51.5272 26.3042L49.8545 18.9115L55.5269 13.9211C55.9441 13.5548 56.1034 12.9764 55.9322 12.4472ZM83.7426 11.4938C84.295 11.5438 84.762 11.919 84.9322 12.4472C85.1034 12.9764 84.9441 13.5548 84.5269 13.9211L78.8545 18.9115L80.5272 26.3042C80.6496 26.8466 80.4395 27.4087 79.9898 27.7357C79.5413 28.0619 78.9444 28.088 78.4709 27.8022L72.0001 23.9204L65.5269 27.8022C65.3081 27.9335 65.0643 28 64.8186 28C64.5335 28 64.2508 27.9108 64.0092 27.7357C63.5597 27.4097 63.3494 26.8478 63.4718 26.3042L65.1445 18.9115L59.4721 13.9201C59.0549 13.5548 58.8968 12.9754 59.068 12.4472C59.2392 11.919 59.705 11.545 60.2565 11.4938L67.762 10.8101L70.7294 3.84252C70.9482 3.3306 71.4465 3 72.0001 3C72.5537 3 73.0521 3.3306 73.2709 3.84132L76.2383 10.8101L83.7426 11.4938ZM113.932 12.4472C113.762 11.919 113.295 11.5438 112.743 11.4938L105.238 10.8101L102.271 3.84132C102.052 3.3306 101.554 3 101 3C100.446 3 99.9482 3.3306 99.7294 3.84252L96.762 10.8101L89.2565 11.4938C88.705 11.545 88.2392 11.919 88.068 12.4472C87.8968 12.9754 88.0549 13.5548 88.4721 13.9201L94.1445 18.9115L92.4718 26.3042C92.3494 26.8478 92.5597 27.4097 93.0092 27.7357C93.2508 27.9108 93.5335 28 93.8186 28C94.0643 28 94.3081 27.9335 94.5269 27.8022L101 23.9204L107.471 27.8022C107.944 28.088 108.541 28.0619 108.99 27.7357C109.44 27.4087 109.65 26.8466 109.527 26.3042L107.855 18.9115L113.527 13.9211C113.944 13.5548 114.103 12.9764 113.932 12.4472ZM141.743 11.4938C142.295 11.5438 142.762 11.919 142.932 12.4472C143.103 12.9764 142.944 13.5548 142.527 13.9211L136.855 18.9115L138.527 26.3042C138.65 26.8466 138.44 27.4087 137.99 27.7357C137.541 28.0619 136.944 28.088 136.471 27.8022L130 23.9204L123.527 27.8022C123.308 27.9335 123.064 28 122.819 28C122.534 28 122.251 27.9108 122.009 27.7357C121.56 27.4097 121.349 26.8478 121.472 26.3042L123.144 18.9115L117.472 13.9201C117.055 13.5548 116.897 12.9754 117.068 12.4472C117.239 11.919 117.705 11.545 118.256 11.4938L125.762 10.8101L128.729 3.84252C128.948 3.3306 129.446 3 130 3C130.554 3 131.052 3.3306 131.271 3.84132L134.238 10.8101L141.743 11.4938Z" fill="white"/>
</svg>
